<?xml version="1.0" encoding="UTF-8"?>
<svg id="Capa_1" data-name="Capa 1" xmlns="http://www.w3.org/2000/svg" xmlns:xlink="http://www.w3.org/1999/xlink" viewBox="0 0 400.66 82.83">
  <defs>
    <style>
      .cls-1 {
        fill: none;
      }

      .cls-2 {
        clip-path: url(#clippath);
      }

      .cls-3 {
        letter-spacing: 0em;
      }

      .cls-4 {
        letter-spacing: .02em;
      }

      .cls-5 {
        fill: #c19977;
      }

      .cls-6 {
        letter-spacing: 0em;
      }

      .cls-7 {
        fill: #fff;
        font-family: AlternateGotNo3D, 'Alternate Gothic No3 D';
        font-size: 69.44px;
      }

      .cls-8 {
        letter-spacing: 0em;
      }
    </style>
    <clipPath id="clippath">
      <rect class="cls-1" x="0" y="0" width="216" height="80"/>
    </clipPath>
  </defs>
  <g class="cls-2">
    <g>
      <path class="cls-5" d="m30.49,0c-1.52.01-3.03.23-4.48.66-1.45.43-2.78,1.06-3.99,1.86,1.32,3.36,4.7,7.62,8.61,11.25,4.08,3.8,8.76,7.02,11.79,8.48l.04.02.03.02c2.78,1.43,4.74,3.67,5.88,6.15.73,1.59,1.16,3.26,1.41,4.96,2.23-1.73,4.57-3.12,6.96-4.13-.18-3.13-.87-6.42-2.13-9.71-2.63-6.9-7.24-12.45-12.45-15.84C38.4,1.29,34.38-.03,30.49,0h0Zm-13.08,7.24c-.88,1.36-1.59,2.87-2.14,4.51-1.82,5.49-1.67,12.37.96,19.27,1.59,4.17,3.91,7.86,6.64,10.86,2.69.81,5.36,2.05,7.86,3.74,1.93,1.3,3.66,2.8,5.15,4.42.49.12.97.22,1.46.3.93-2.42,2.13-4.82,3.62-7.16.9-1.41,1.88-2.77,2.95-4.06.01-.89,0-1.75-.04-2.57-.11-2.22-.47-4.12-1.12-5.54-.65-1.42-1.5-2.42-3.09-3.23l.07.03c-3.92-1.89-8.81-5.33-13.31-9.52-3.58-3.33-6.9-7.06-9.01-11.05h0Zm47.9,23.22c-2.31.02-4.76.56-7.23,1.58-5.28,2.19-10.58,6.63-14.5,12.8-2.01,3.15-3.45,6.44-4.34,9.67,3.52,5.9,4.38,12.67,1.85,18.36.41.58.87,1.13,1.37,1.64,3.71-3.19,7.98-5.84,11.01-8.56,1.66-1.48,2.92-2.96,3.61-4.36.7-1.4.94-2.69.58-4.43l-.02-.1v-.1c-1.39-9.97,1.03-15.83,4.55-19.42,2.83-2.88,5.66-4.4,7.6-6.41-1.41-.47-2.91-.69-4.47-.68h0Zm9.72,4.1c-2.85,3.54-6.36,5.17-8.45,7.3-2.41,2.45-4.07,5.4-2.86,14.22.58,3,.07,5.88-1.12,8.27-1.22,2.44-3.03,4.42-5.02,6.2-3.02,2.7-6.49,5.01-9.4,7.27,3.3.86,7.06.44,10.88-1.14,5.28-2.19,10.58-6.63,14.5-12.8,3.92-6.17,5.69-12.85,5.43-18.55-.2-4.36-1.55-8.1-3.96-10.76h0Zm-11.32,21.52c-.01-.05-.02-.11-.03-.16l.04.2s0-.03,0-.04h0Zm-47.98-12.22c-3.15-.03-6.11.66-8.61,2.02.02,0,.03,0,.05,0,1.48.05,3.33-.12,5.47.17,2.14.29,4.64,1.26,6.53,3.4,1.9,2.14,3.19,5.18,4.1,9.54l.02.1v.1c.43,3.04,2.37,4.8,5.74,6.45,2.87,1.41,6.56,2.41,10.05,3.43,1.57-7.01-2.15-15.57-10.07-20.91-4.27-2.88-8.95-4.28-13.29-4.32h0Zm-13.88,7.09c-4.33,7.45-.86,18.37,8.58,24.74,9.28,6.26,20.51,5.52,25.91-.98-3.16-.9-6.73-1.92-10.02-3.53-4.24-2.08-8.28-5.57-9.09-10.99-.78-3.71-1.81-5.69-2.67-6.66-.86-.98-1.54-1.21-2.75-1.38-1.21-.17-2.88-.05-4.85-.12-1.54-.05-3.34-.27-5.11-1.09h0Zm15.38,9.25s0,.03.01.05l-.04-.2c0,.05.02.1.02.15h0Z"/>
      <text class="cls-7" transform="translate(87.42 65.47) scale(1.12 1)"><tspan class="cls-8" x="0" y="0">C</tspan><tspan x="31.04" y="0">O</tspan><tspan class="cls-3" x="62.43" y="0">R</tspan><tspan class="cls-6" x="93.19" y="0">DILLE</tspan><tspan class="cls-4" x="216.24" y="0">R</tspan><tspan class="cls-6" x="247.83" y="0">A</tspan></text>
    </g>
  </g>
</svg>